<svg width="24" height="24" viewBox="0 0 24 24" fill="none" xmlns="http://www.w3.org/2000/svg">
<mask id="mask0_422_154" style="mask-type:luminance" maskUnits="userSpaceOnUse" x="12" y="10" width="9" height="9">
<path d="M20.8201 12.205C20.8201 11.5663 20.7632 10.9527 20.6562 10.364H12.1799V13.8451H17.0232C16.8144 14.9704 16.1807 15.9229 15.2272 16.5616V18.8193H18.1356C19.8377 17.2532 20.8201 14.9455 20.8201 12.205Z" fill="white"/>
</mask>
<g mask="url(#mask0_422_154)">
<path d="M25.8206 5.36359H7.17993V23.8193H25.8206V5.36359Z" fill="#3E82F1"/>
</g>
<mask id="mask1_422_154" style="mask-type:luminance" maskUnits="userSpaceOnUse" x="4" y="13" width="15" height="8">
<path d="M12.1805 21C14.6101 21 16.648 20.1944 18.1371 18.8192L15.2288 16.5614C14.4232 17.1011 13.3918 17.421 12.1815 17.421C9.83777 17.421 7.85287 15.8378 7.14526 13.71H4.13794V16.0417C5.61812 18.9831 8.66242 21 12.1805 21Z" fill="white"/>
</mask>
<g mask="url(#mask1_422_154)">
<path d="M23.1376 8.70966H-0.862061V26H23.1376V8.70966Z" fill="#32A753"/>
</g>
<mask id="mask2_422_154" style="mask-type:luminance" maskUnits="userSpaceOnUse" x="3" y="7" width="5" height="10">
<path d="M7.14373 13.71C6.96383 13.1704 6.86188 12.5937 6.86188 12C6.86188 11.4063 6.96383 10.8297 7.14373 10.29V7.95825H4.1374C3.52774 9.17358 3.17993 10.5478 3.17993 12C3.17993 13.4522 3.52774 14.8264 4.1374 16.0418L7.14373 13.71Z" fill="white"/>
</mask>
<g mask="url(#mask2_422_154)">
<path d="M12.1442 2.95813H-1.82007V21.0421H12.1442V2.95813Z" fill="#F9BB00"/>
</g>
<mask id="mask3_422_154" style="mask-type:luminance" maskUnits="userSpaceOnUse" x="4" y="3" width="15" height="8">
<path d="M12.1805 6.57901C13.5017 6.57901 14.6881 7.03275 15.6205 7.92526L18.2021 5.3437C16.643 3.8915 14.6061 3 12.1805 3C8.66242 3 5.61812 5.01688 4.13794 7.95824L7.14526 10.2899C7.85187 8.16213 9.83677 6.57901 12.1805 6.57901Z" fill="white"/>
</mask>
<g mask="url(#mask3_422_154)">
<path d="M23.2025 -2.00018H-0.862061V15.2902H23.2025V-2.00018Z" fill="#E74133"/>
</g>
</svg>
